<svg width="21" height="21" viewBox="0 0 21 21" fill="none" xmlns="http://www.w3.org/2000/svg">
<path d="M12.8882 10.9038L9.34662 14.4454L7.52197 12.6207C7.27783 12.3766 6.88232 12.3766 6.63818 12.6207C6.39404 12.8649 6.39404 13.2604 6.63818 13.5045L8.90472 15.7711C9.02679 15.8931 9.18671 15.9542 9.34662 15.9542C9.50653 15.9542 9.66644 15.8931 9.78851 15.7711L13.772 11.7876C14.0161 11.5435 14.0161 11.1479 13.772 10.9038C13.5278 10.6597 13.1323 10.6597 12.8882 10.9038Z" fill="url(#paint0_linear_123_2348)"/>
<path d="M15.8301 3.32166H14.8926V2.72168C14.8926 2.37653 14.6127 2.09668 14.2676 2.09668C13.9224 2.09668 13.6426 2.37653 13.6426 2.72168V3.32166H6.76758V2.72168C6.76758 2.37653 6.48773 2.09668 6.14258 2.09668C5.79742 2.09668 5.51758 2.37653 5.51758 2.72168V3.32166H4.58008C2.85706 3.32166 1.45508 4.72363 1.45508 6.44666V16.4717C1.45508 18.1947 2.85706 19.5967 4.58008 19.5967H15.8301C17.5531 19.5967 18.9551 18.1947 18.9551 16.4717V6.44666C18.9551 4.72363 17.5531 3.32166 15.8301 3.32166ZM2.70508 6.44666C2.70508 5.41272 3.54614 4.57166 4.58008 4.57166H5.51758V5.17133C5.51758 5.51648 5.79742 5.79633 6.14258 5.79633C6.48773 5.79633 6.76758 5.51648 6.76758 5.17133V4.57166H13.6426V5.17133C13.6426 5.51648 13.9224 5.79633 14.2676 5.79633C14.6127 5.79633 14.8926 5.51648 14.8926 5.17133V4.57166H15.8301C16.864 4.57166 17.7051 5.41272 17.7051 6.44666V7.07776H2.70508V6.44666ZM15.8301 18.3467H4.58008C3.54614 18.3467 2.70508 17.5056 2.70508 16.4717V8.32776H17.7051V16.4717C17.7051 17.5056 16.864 18.3467 15.8301 18.3467Z" fill="url(#paint1_linear_123_2348)"/>
<defs>
<linearGradient id="paint0_linear_123_2348" x1="6.53202" y1="13.2975" x2="13.8781" y2="13.3254" gradientUnits="userSpaceOnUse">
<stop stop-color="#4D51AB"/>
<stop offset="1" stop-color="#55CEE3"/>
</linearGradient>
<linearGradient id="paint1_linear_123_2348" x1="1.6346" y1="10.7131" x2="18.7756" y2="10.7585" gradientUnits="userSpaceOnUse">
<stop stop-color="#4D51AB"/>
<stop offset="1" stop-color="#55CEE3"/>
</linearGradient>
</defs>
</svg>
