<svg width="31" height="31" viewBox="0 0 31 31" fill="none" xmlns="http://www.w3.org/2000/svg">
<g clip-path="url(#clip0_201_2996)">
<path d="M20.7623 19.876C23.9546 14.8666 23.5533 15.4916 23.6453 15.361C24.8076 13.7216 25.4219 11.7922 25.4219 9.78113C25.4219 4.44793 21.0941 0.0545654 15.7539 0.0545654C10.4311 0.0545654 6.08594 4.43925 6.08594 9.78113C6.08594 11.7909 6.71313 13.7708 7.91348 15.4323L10.7454 19.876C7.7176 20.3413 2.57031 21.7279 2.57031 24.7811C2.57031 25.8941 3.29676 27.4802 6.75754 28.7162C9.17406 29.5793 12.369 30.0546 15.7539 30.0546C22.0835 30.0546 28.9375 28.2691 28.9375 24.7811C28.9375 21.7274 23.7963 20.3422 20.7623 19.876ZM9.38178 14.4654C9.37211 14.4503 9.36203 14.4355 9.35148 14.421C8.35264 13.0469 7.84375 11.4183 7.84375 9.78113C7.84375 5.38554 11.3832 1.81238 15.7539 1.81238C20.1156 1.81238 23.6641 5.38712 23.6641 9.78113C23.6641 11.4209 23.1648 12.9942 22.22 14.3322C22.1353 14.4438 22.577 13.7576 15.7539 24.4641L9.38178 14.4654ZM15.7539 28.2968C8.8402 28.2968 4.32812 26.2645 4.32812 24.7811C4.32812 23.7841 6.64656 22.1447 11.7841 21.5057L15.0127 26.5719C15.1741 26.8251 15.4536 26.9784 15.7538 26.9784C16.0541 26.9784 16.3337 26.8251 16.495 26.5719L19.7236 21.5057C24.8612 22.1447 27.1797 23.7841 27.1797 24.7811C27.1797 26.2519 22.7082 28.2968 15.7539 28.2968Z" fill="#4D51AB"/>
<path d="M15.7539 5.3866C13.3308 5.3866 11.3594 7.35798 11.3594 9.78113C11.3594 12.2043 13.3308 14.1757 15.7539 14.1757C18.1771 14.1757 20.1484 12.2043 20.1484 9.78113C20.1484 7.35798 18.1771 5.3866 15.7539 5.3866ZM15.7539 12.4178C14.3 12.4178 13.1172 11.235 13.1172 9.78113C13.1172 8.32724 14.3 7.14441 15.7539 7.14441C17.2078 7.14441 18.3906 8.32724 18.3906 9.78113C18.3906 11.235 17.2078 12.4178 15.7539 12.4178Z" fill="#4D51AB"/>
</g>
<defs>
<clipPath id="clip0_201_2996">
<rect width="30" height="30" fill="white" transform="translate(0.753906 0.0545654)"/>
</clipPath>
</defs>
</svg>
