<svg version="1.2" xmlns="http://www.w3.org/2000/svg" viewBox="0 0 81 81" width="81" height="81"><defs><clipPath clipPathUnits="userSpaceOnUse" id="cp1"><path d="m0.77 0.9h80v80h-80z"/></clipPath></defs><style>.a{fill:#f15b28}</style><g clip-path="url(#cp1)"><path class="a" d="m14.2 40.2c-1.1 0-2.1 0.5-2.7 1.3-0.9-1.1-2.4-1.6-3.8-1.1-1.4 0.4-2.3 1.7-2.3 3.2 0 1.4 0.9 2.7 2.3 3.2 1.4 0.5 2.9 0 3.8-1.2 0.9 1.3 2.7 1.7 4.1 1.1 1.4-0.7 2.2-2.3 1.9-3.9-0.4-1.5-1.7-2.6-3.3-2.6zm-5.4 4.5c-0.6 0-1.2-0.5-1.2-1.1 0-0.7 0.6-1.2 1.2-1.2 0.6 0 1.1 0.5 1.1 1.2 0 0.6-0.5 1.1-1.1 1.1zm5.4 0c-0.7 0-1.2-0.5-1.2-1.1 0-0.7 0.5-1.2 1.2-1.2 0.6 0 1.1 0.5 1.1 1.2 0 0.6-0.5 1.1-1.1 1.1z"/><path class="a" d="m80.8 26.4c0-11.9-9.7-21.6-21.6-21.6-8.5 0-15.9 4.9-19.4 12h-27.1c-1.6 0-3.1 0.6-4.2 1.7-1 1.1-1.6 2.6-1.6 4.2v2h-1.9c-1.1 0-2.2 0.4-3 1.2-0.8 0.8-1.2 1.8-1.2 2.9v17.9c0 1.1 0.4 2.2 1.2 3 0.8 0.7 1.9 1.2 3 1.2h1.9v9.5c0 3.2 2.5 5.9 5.8 5.9h17v8.5h-5.3c-0.6 0-1.1 0.5-1.1 1.1 0 0.6 0.5 1.1 1.1 1.1h34.4c0.6 0 1.1-0.5 1.1-1.1 0-0.6-0.5-1.1-1.1-1.1h-5.3v-8.5h17.1c3.2 0 5.8-2.7 5.8-5.9v-21c2.9-3.8 4.4-8.3 4.4-13zm-21.6-19.4c10.7 0 19.3 8.7 19.3 19.4 0 10.7-8.6 19.3-19.3 19.3-10.7 0-19.4-8.6-19.4-19.3 0-10.7 8.7-19.4 19.4-19.4zm-54.2 19.9h28.3c1.1 0 2 0.9 2 1.9v1.2h-32.3v-1.2c0-0.5 0.2-1 0.6-1.3 0.4-0.4 0.9-0.6 1.4-0.6zm-2 5.3h32.3v3.6h-32.3zm0 14.5v-8.8h32.3v8.8c0 1-0.9 1.8-2 1.8h-28.3c-0.5 0.1-1-0.1-1.4-0.5-0.4-0.3-0.6-0.8-0.6-1.3zm48.2 28h-19.3v-8.5h19.3zm23-14.4c0 2-1.6 3.6-3.6 3.7h-57.9c-2 0-3.6-1.7-3.6-3.7v-4.7h65.1zm-65.1-7v-2.5h24.2c2.3 0 4.3-1.9 4.3-4.2v-17.9c0-2.3-2-4.1-4.3-4.1h-24.2v-2c0-1 0.4-1.9 1-2.6 0.7-0.6 1.6-1 2.6-1h26.1c-0.8 2.3-1.3 4.8-1.3 7.3 0 11.9 9.7 21.6 21.7 21.6 5.6 0 11-2.2 15-6.1v11.5z"/><path class="a" d="m48.5 25v3.4q-0.3 0.1-0.4 0.4c-0.2 0.3-0.2 0.8 0 1.2l0.4 0.5v5.6c0 1.1 0.6 2.1 1.5 2.7l7.6 4.8c1.1 0.7 2.4 0.7 3.4 0l7.7-4.8c0.9-0.6 1.5-1.6 1.5-2.7v-5.6l0.3-0.5c0.3-0.4 0.3-0.9 0.1-1.2q-0.2-0.3-0.4-0.4v-3.4c2.2-1.1 2.8-2.4 2.8-3.4 0-2-2.4-3.7-6.8-4.6l-0.2-1.2c-0.3-2.3-1.9-4.2-4-5.1-1.7-0.7-3.7-0.7-5.4 0-2.1 0.9-3.6 2.8-4 5.1l-0.2 1.2q0 0-0.1 0c-4.3 0.9-6.7 2.6-6.7 4.6 0 1.4 1.1 2.5 2.9 3.4zm10.8 1.9c3.2 0 6.2-0.4 8.6-1.1v2.6l-6.8 0.5c-1.2-0.7-2.3-0.7-3.5 0l-6.9-0.5v-2.6c2.6 0.7 5.6 1.1 8.6 1.1zm8.6 9.2c0 0.4-0.2 0.7-0.4 0.8l-7.7 4.8c-0.3 0.2-0.7 0.2-1 0l-7.6-4.8c-0.3-0.1-0.5-0.4-0.5-0.8v-2.2l1.4 2c0.2 0.3 0.5 0.5 0.8 0.5q0.1 0 0.1 0c0.3 0 0.6-0.1 0.9-0.3l4.8-5.2c0.5-0.4 0.8-0.4 1.2 0l4.9 5.2c0.2 0.2 0.5 0.3 0.8 0.3q0.1 0 0.1 0c0.4 0 0.7-0.2 0.9-0.5l1.3-2zm-12.4-5.1l-2.3 2.5-1.9-2.8zm11.8-0.4l-1.8 2.8-2.3-2.4zm-12.5-14.5c0.2-1.4 1-2.6 2.3-3.3 1.2-0.6 2.7-0.7 3.9-0.2 1.5 0.7 2.5 2 2.7 3.5q0 0 0 0l0.5 3.1-0.9 0.2c-2.6 0.9-5.5 0.9-8.2 0l-0.9-0.2zm-2.8 3.2l-0.1 0.4c-0.1 0.6 0.3 1.1 0.8 1.3l1.8 0.5q2.4 0.8 4.8 0.8 2.5 0 4.8-0.8l1.8-0.5c0.6-0.2 0.9-0.7 0.8-1.3l-0.1-0.4c3.1 0.8 4.1 1.8 4.1 2.2 0 0.9-3.8 3-11.4 3-7.5 0-11.4-2.1-11.4-3 0-0.4 1.1-1.5 4.1-2.2z"/></g></svg>