<svg width="100" height="100" viewBox="0 0 100 100" fill="none" xmlns="http://www.w3.org/2000/svg">
<path d="M45.0428 63.791H34.3393C33.5433 63.791 32.8984 64.4367 32.8984 65.2319C32.8984 66.0279 33.5433 66.6727 34.3393 66.6727H45.0428C45.8389 66.6727 46.4837 66.0279 46.4837 65.2319C46.4837 64.4367 45.8389 63.791 45.0428 63.791Z" fill="white" fill-opacity="0.2"/>
<path d="M45.0428 86.0215H34.3393C33.5433 86.0215 32.8984 86.6671 32.8984 87.4623C32.8984 88.2584 33.5433 88.9032 34.3393 88.9032H45.0428C45.8389 88.9032 46.4837 88.2584 46.4837 87.4623C46.4837 86.6671 45.8389 86.0215 45.0428 86.0215Z" fill="white" fill-opacity="0.2"/>
<path d="M66.0092 4.04092e-06C58.5726 -0.00401621 51.4487 2.99188 46.2513 8.30988C44.0956 8.14988 41.8869 8.06465 39.6693 8.06465C30.9678 8.06465 22.8075 9.29806 16.6155 11.539C9.9652 13.9455 6.34375 17.3322 6.34375 21.0742V86.9888C6.34375 90.7333 9.9644 94.1199 16.6147 96.5265C22.8051 98.7658 30.9863 99.9992 39.691 99.9992C44.7887 100.018 49.8767 99.5594 54.89 98.6323C66.2722 96.4493 73.035 92.0969 73.035 86.9888V54.4697C85.2044 51.2768 93.6871 40.2742 93.6807 27.6932C93.6807 12.4226 81.279 4.04092e-06 66.0092 4.04092e-06ZM39.6685 10.9464C41.0836 10.9464 42.4931 10.9842 43.8874 11.0517C39.5471 16.8127 37.627 24.0396 38.5356 31.1948C21.1544 30.9769 9.14185 25.7642 9.14185 21.0742C9.14346 16.2837 21.6786 10.9464 39.6685 10.9464ZM9.22547 26.5385C10.8722 28.0751 13.4242 29.4556 16.6147 30.6103C22.662 32.7981 30.606 34.0259 39.0815 34.0822C39.7344 36.8634 40.8167 39.5248 42.2897 41.9723H34.3376C33.5416 41.9723 32.8968 42.618 32.8968 43.4132C32.8968 44.2092 33.5416 44.8541 34.3376 44.8541H44.2902C46.6356 47.8178 49.5599 50.2734 52.8839 52.072C48.5291 52.786 44.1237 53.1382 39.7111 53.1245C21.7212 53.1245 9.22547 47.7864 9.22547 42.9959V26.5385ZM54.336 95.8028C49.5093 96.6961 44.6094 97.1359 39.7007 97.1183C21.71 97.1183 9.22547 91.781 9.22547 86.9888V70.3827C10.8722 71.9193 13.4242 73.2998 16.6147 74.4544C22.8051 76.6937 30.9863 77.9271 39.691 77.9271C48.3949 77.9271 56.5648 76.6937 62.7544 74.4544C65.9449 73.2998 68.5066 71.9193 70.1533 70.3827V86.9888C70.1533 90.4438 63.8102 93.9849 54.336 95.8028ZM70.1533 64.4601V64.9168C70.1533 69.7073 57.6793 75.0454 39.6894 75.0454C21.6995 75.0454 9.22547 69.7073 9.22547 64.9168V48.4618C10.8722 49.9984 13.4242 51.3789 16.6147 52.5319C22.8051 54.772 30.9863 56.0055 39.691 56.0055C46.0864 56.0055 52.2471 55.3341 57.5715 54.0653C60.2924 54.9417 63.1339 55.3871 65.9924 55.3847C67.3858 55.3904 68.7768 55.285 70.1533 55.0695V64.4601ZM66.0092 52.5038C52.3058 52.5046 41.197 41.3966 41.197 27.6932C41.197 13.9905 52.305 2.88173 66.0076 2.88173C79.7111 2.88173 90.8191 13.9897 90.8191 27.6932C90.8038 41.3894 79.7055 52.4885 66.0092 52.5038Z" fill="white" fill-opacity="0.2"/>
<path d="M81.1158 15.5068L66.6332 8.3853C66.6179 8.37726 66.6123 8.37244 66.5962 8.36601C66.4056 8.26711 66.1942 8.21565 65.9787 8.21484H65.9771C65.6611 8.21565 65.3539 8.32339 65.1063 8.52038L50.8344 15.4859C50.3294 15.7231 49.9998 16.2224 49.9805 16.7796V30.3673C49.9805 34.0724 52.4272 38.6112 55.4898 40.6994L65.1811 47.2926C65.4239 47.4558 65.7109 47.5426 66.0044 47.5426C66.2955 47.5426 66.5801 47.4558 66.8221 47.2926L76.4547 40.6994C79.5181 38.6112 81.8853 34.0724 81.8853 30.3673V16.8005C81.8997 16.257 81.6006 15.7536 81.1158 15.5068ZM52.8622 30.3673V17.6785L64.492 12.0051L64.5483 43.3736L57.1028 38.3186C54.8225 36.7635 52.8622 33.1236 52.8622 30.3673ZM79.0035 30.3673C79.0035 33.1236 77.114 36.7643 74.8353 38.3186L67.4356 43.3768L67.3753 11.9738L79.0035 17.6978V30.3673Z" fill="white" fill-opacity="0.2"/>
</svg>
