<svg width="21" height="21" viewBox="0 0 21 21" fill="none" xmlns="http://www.w3.org/2000/svg">
<g clip-path="url(#clip0_123_2364)">
<path d="M10.2051 20.8467C15.7184 20.8467 20.2051 16.36 20.2051 10.8467C20.2051 5.33336 15.7185 0.84668 10.2051 0.84668C4.6917 0.84668 0.205078 5.33336 0.205078 10.8467C0.205078 16.36 4.69175 20.8467 10.2051 20.8467ZM10.2051 2.17999C14.9851 2.17999 18.8718 6.06664 18.8718 10.8467C18.8718 15.6267 14.9851 19.5134 10.2051 19.5134C5.42504 19.5134 1.53839 15.6267 1.53839 10.8467C1.53839 6.06664 5.4251 2.17999 10.2051 2.17999Z" fill="url(#paint0_linear_123_2364)"/>
<path d="M13.1204 14.0333C13.2438 14.1333 13.3904 14.18 13.5371 14.18C13.7338 14.18 13.9271 14.0934 14.0571 13.93C14.2871 13.6433 14.2404 13.2233 13.9538 12.9933L10.8704 10.5267V5.51334C10.8704 5.14666 10.5704 4.84668 10.2038 4.84668C9.83709 4.84668 9.53711 5.14666 9.53711 5.51334V10.8467C9.53711 11.05 9.63046 11.24 9.78711 11.3667L13.1204 14.0333Z" fill="url(#paint1_linear_123_2364)"/>
</g>
<defs>
<linearGradient id="paint0_linear_123_2364" x1="0.410246" y1="10.694" x2="19.9999" y2="10.7459" gradientUnits="userSpaceOnUse">
<stop stop-color="#4D51AB"/>
<stop offset="1" stop-color="#55CEE3"/>
</linearGradient>
<linearGradient id="paint1_linear_123_2364" x1="9.58498" y1="9.44208" x2="14.1554" y2="9.44815" gradientUnits="userSpaceOnUse">
<stop stop-color="#4D51AB"/>
<stop offset="1" stop-color="#55CEE3"/>
</linearGradient>
<clipPath id="clip0_123_2364">
<rect width="20" height="20" fill="white" transform="translate(0.205078 0.84668)"/>
</clipPath>
</defs>
</svg>
