<svg version="1.2" xmlns="http://www.w3.org/2000/svg" viewBox="0 0 81 81" width="81" height="81"><defs><clipPath clipPathUnits="userSpaceOnUse" id="cp1"><path d="m0.98 0.9h80v80h-80z"/></clipPath></defs><style>.a{fill:#f15b28}</style><g clip-path="url(#cp1)"><path class="a" d="m40.9 35.4c-1.8 0-3.4 1.4-3.8 3.2-0.3 1.8 0.8 3.6 2.5 4.3v3.2c0 0.6 0.5 1.1 1.2 1.1 0.6 0 1.1-0.5 1.1-1.1v-3.1c1.9-0.5 3.1-2.3 2.8-4.2-0.2-1.9-1.8-3.4-3.8-3.4zm0 5.4c-0.8 0-1.5-0.7-1.5-1.5 0-0.9 0.7-1.5 1.5-1.5 0.9 0 1.6 0.6 1.6 1.5 0 0.8-0.7 1.5-1.6 1.5z"/><path class="a" d="m9.6 37.1c-0.2-0.7-0.6-1.4-1.2-2-1.7-1.7-4.4-1.6-6.1 0.1-1.7 1.7-1.7 4.4 0 6.1 1.7 1.8 4.4 1.8 6.1 0.1 0.6-0.6 1-1.2 1.2-2h13.1v6.3h-7.1c-0.6 0-1.2 0.5-1.2 1.2v7h-4.1c-0.2-0.7-0.6-1.4-1.1-1.9-1.3-1.3-3.2-1.7-4.9-1-1.6 0.7-2.7 2.3-2.7 4.1 0 1.8 1.1 3.4 2.7 4.1 1.7 0.7 3.6 0.3 4.9-1 0.5-0.5 0.9-1.2 1.1-2h5.3c0.3 0 0.6-0.1 0.8-0.3 0.2-0.2 0.3-0.5 0.3-0.8v-7h6v5.1c0 0.6 0.5 1.2 1.2 1.2h7.7v5.8h-7c-0.3 0-0.6 0.1-0.8 0.3-0.2 0.2-0.3 0.5-0.3 0.8v5.3c-0.8 0.2-1.4 0.6-2 1.1-1.7 1.8-1.7 4.5 0 6.3 1.7 1.7 4.5 1.7 6.2 0 1.8-1.8 1.8-4.5 0.1-6.3-0.6-0.5-1.2-0.9-2-1.1v-4.1h7.1c0.6 0 1.1-0.5 1.1-1.2v-6.9h6.3v12.9c-0.8 0.3-1.4 0.6-1.9 1.2-1.3 1.2-1.7 3.1-1 4.8 0.7 1.6 2.3 2.7 4.1 2.7 1.7 0 3.4-1.1 4-2.7 0.7-1.7 0.3-3.6-0.9-4.8-0.6-0.6-1.3-1-2-1.2v-12.9h5.5v6.9c-0.1 0.7 0.5 1.2 1.1 1.2h6.7v4.1c-0.8 0.2-1.4 0.6-2 1.1-1.2 1.3-1.6 3.2-0.9 4.9 0.6 1.6 2.3 2.7 4.1 2.7 1.8 0 3.4-1.1 4.1-2.7 0.6-1.7 0.2-3.6-1-4.9-0.6-0.5-1.2-0.9-2-1.1v-5.3c0-0.3-0.1-0.6-0.3-0.8-0.2-0.2-0.5-0.3-0.8-0.3h-6.7v-5.8h7.4c0.7 0 1.2-0.6 1.2-1.2v-5.1h6.2v7c0 0.3 0.1 0.6 0.3 0.8 0.2 0.2 0.5 0.3 0.8 0.3h5.3c0.1 0.8 0.5 1.5 1.1 2 0.8 0.8 1.9 1.3 3.1 1.3 1.2 0 2.3-0.5 3.1-1.3 0.8-0.8 1.3-1.9 1.3-3.1 0-1.2-0.5-2.3-1.3-3.1-1.7-1.7-4.5-1.7-6.2 0-0.5 0.5-0.9 1.2-1.1 1.9h-4.1v-7c0-0.7-0.6-1.2-1.2-1.2h-7.3v-6.3h13.3c0.2 0.8 0.6 1.4 1.1 2 1.3 1.2 3.2 1.6 4.8 0.9 1.7-0.6 2.8-2.3 2.8-4 0-1.8-1.1-3.4-2.8-4.1-1.6-0.7-3.5-0.3-4.8 0.9-0.5 0.6-0.9 1.3-1.1 2h-13.3v-5.5h7.3c0.6 0 1.2-0.4 1.2-1.1v-6.7h4.1c0.2 0.8 0.6 1.4 1.1 2 1.7 1.7 4.5 1.7 6.2 0 1.7-1.7 1.7-4.5 0-6.3-1.7-1.7-4.5-1.7-6.2 0-0.5 0.6-0.9 1.3-1.1 2h-5.3c-0.3 0-0.6 0.1-0.8 0.3-0.2 0.3-0.3 0.5-0.3 0.8v6.7h-6.2v-4.3c0-0.6-0.5-1.1-1.2-1.2h-4.8v-5.6c0-6.8-5.4-12.3-12.2-12.3-6.7 0-12.2 5.5-12.2 12.3v5.6h-4.7c-0.7 0.1-1.2 0.6-1.2 1.2v4.3h-6v-6.7c0-0.3-0.1-0.5-0.3-0.8-0.2-0.2-0.5-0.3-0.8-0.3h-5.3c-0.2-0.7-0.6-1.4-1.1-2-1.7-1.7-4.5-1.6-6.2 0.1-1.7 1.7-1.7 4.4 0 6.2 1.7 1.7 4.5 1.7 6.2 0 0.5-0.6 0.9-1.2 1.1-2h4.1v6.7c0 0.7 0.6 1.1 1.2 1.1h7.1v5.5zm-2.8 2.6c-0.8 0.8-2.1 0.8-2.9 0-0.8-0.8-0.8-2.1 0-2.9 0.8-0.8 2.1-0.8 2.9 0 0.8 0.8 0.8 2.1 0 2.9zm0.7 16.9c-0.8 0.8-2.1 0.8-2.9 0-0.8-0.8-0.8-2.1 0-2.9 0.8-0.9 2.1-0.9 2.9 0 0.8 0.8 0.8 2.1 0 2.9zm18.6 15.7c-0.8 0.8-2.1 0.8-3 0-0.8-0.8-0.8-2.1 0-2.9 0.9-0.8 2.2-0.8 3 0 0.4 0.4 0.6 0.9 0.6 1.5 0 0.5-0.2 1-0.6 1.4zm16.9 0.8c-0.8 0.8-2.2 0.8-3 0-0.8-0.9-0.8-2.2 0-3 0.8-0.8 2.2-0.8 3 0 0.8 0.8 0.8 2.1 0 3zm16.2-2.2c0 1-0.7 1.8-1.7 2-1 0.2-1.9-0.3-2.3-1.2-0.4-1-0.1-2 0.7-2.6 0.9-0.5 2-0.4 2.7 0.3 0.3 0.4 0.6 0.9 0.6 1.5zm15.1-17.2c0.8-0.9 2.2-0.9 3 0 0.8 0.8 0.8 2.1 0 2.9-0.8 0.8-2.2 0.8-3 0-0.4-0.4-0.6-0.9-0.6-1.5 0-0.5 0.2-1.1 0.6-1.4zm0.8-16.9c0.8-0.8 2.1-0.8 2.9 0 0.8 0.8 0.8 2.1 0 2.9-0.8 0.8-2.1 0.8-2.9 0-0.4-0.4-0.7-0.9-0.7-1.5 0-0.5 0.3-1 0.7-1.4zm-0.8-15.6c0.8-0.8 2.2-0.8 3 0 0.8 0.8 0.8 2.1 0 2.9-0.8 0.8-2.2 0.8-3 0-0.4-0.4-0.6-0.9-0.6-1.5 0-0.5 0.2-1 0.6-1.4zm-66.8 2.9c-0.8 0.8-2.1 0.8-2.9 0-0.8-0.8-0.8-2.1 0-2.9 0.8-0.8 2.1-0.8 2.9 0 0.8 0.8 0.8 2.1 0 2.9zm23.5-5.9c0-5.5 4.4-10 9.8-10 5.5 0 9.9 4.5 9.9 10v5.6h-19.7zm-6 8h31.7v25.9h-31.7z"/></g></svg>