<svg version="1.2" xmlns="http://www.w3.org/2000/svg" viewBox="0 0 80 81" width="80" height="81"><defs><clipPath clipPathUnits="userSpaceOnUse" id="cp1"><path d="m0 0.9h80v80h-80z"/></clipPath></defs><style>.a{fill:#f15b28}</style><g clip-path="url(#cp1)"><path class="a" d="m36 51.9h-8.5c-0.7 0-1.2 0.5-1.2 1.2 0 0.6 0.5 1.1 1.2 1.1h8.5c0.7 0 1.2-0.5 1.2-1.1 0-0.7-0.5-1.2-1.2-1.2z"/><path class="a" d="m36 69.7h-8.5c-0.7 0-1.2 0.5-1.2 1.2 0 0.6 0.5 1.1 1.2 1.1h8.5c0.7 0 1.2-0.5 1.2-1.1 0-0.7-0.5-1.2-1.2-1.2z"/><path class="a" d="m52.8 0.9c-5.9 0-11.6 2.4-15.8 6.6q-2.6-0.1-5.3-0.1c-6.9 0-13.5 0.9-18.4 2.7-5.3 2-8.2 4.7-8.2 7.7v52.7c0 3 2.9 5.7 8.2 7.6 4.9 1.8 11.5 2.8 18.5 2.8q6.1 0 12.1-1.1c9.1-1.7 14.5-5.2 14.5-9.3v-26c9.8-2.6 16.5-11.4 16.5-21.4 0-12.3-9.9-22.2-22.1-22.2zm-21.1 8.8q1.7 0 3.4 0c-2.9 3.9-4.5 8.5-4.4 13.4q0 1.4 0.1 2.8c-13.9-0.2-23.5-4.4-23.5-8.1 0-3.9 10-8.1 24.4-8.1zm-24.3 12.4c1.3 1.3 3.3 2.4 5.9 3.3 4.8 1.7 11.2 2.7 18 2.8 0.5 2.2 1.4 4.3 2.5 6.3h-6.3c-0.7 0-1.2 0.5-1.2 1.1 0 0.7 0.5 1.2 1.2 1.2h7.9c1.9 2.4 4.2 4.3 6.9 5.8q-5.2 0.8-10.5 0.8c-14.4 0-24.4-4.3-24.4-8.1zm36.1 55.4q-5.8 1.1-11.7 1.1c-14.4 0-24.4-4.3-24.4-8.1v-13.3c1.3 1.2 3.3 2.3 5.9 3.2 4.9 1.8 11.5 2.8 18.5 2.8 6.9 0 13.5-1 18.4-2.8 2.6-0.9 4.6-2 5.9-3.2v13.3c0 2.7-5.1 5.6-12.6 7zm12.6-25.1v0.4c0 3.8-10 8.1-24.3 8.1-14.4 0-24.4-4.3-24.4-8.1v-13.2c1.3 1.3 3.3 2.4 5.9 3.3 4.9 1.8 11.5 2.8 18.5 2.8 5.1 0 10-0.6 14.3-1.6 2.1 0.7 4.4 1.1 6.7 1.1q1.7 0 3.3-0.3zm-3.3-9.5c-11 0-19.8-8.9-19.8-19.9 0-11 8.8-19.8 19.8-19.8 11 0 19.9 8.8 19.9 19.8-0.1 11-8.9 19.8-19.9 19.9z"/><path class="a" d="m58.8 9.5c-2.5 0-4.8 1.4-5.9 3.7-1.2 2.2-1 4.9 0.4 6.9l-12.9 13c-0.4 0.4-0.4 1.1 0 1.6 0.5 0.4 1.2 0.4 1.6 0l1-1 3 2.9c0.4 0.4 1.1 0.4 1.6 0l4.1-4.2c0.2-0.2 0.4-0.5 0.4-0.8 0-0.3-0.2-0.6-0.4-0.8l-2.9-2.9 6.2-6.1c2.3 1.6 5.5 1.6 7.8-0.1 2.4-1.8 3.3-4.8 2.4-7.6-0.9-2.7-3.5-4.6-6.4-4.6zm-9.5 22.1l-2.5 2.5-2.1-2.1 2.5-2.5zm9.5-10.9c-2.4 0-4.4-2-4.4-4.4 0-2.5 2-4.5 4.4-4.5 2.5 0 4.5 2 4.5 4.5 0 2.4-2 4.4-4.5 4.4z"/></g></svg>