<svg width="100" height="100" viewBox="0 0 100 100" fill="none" xmlns="http://www.w3.org/2000/svg">
<g clip-path="url(#clip0_542_736)">
<path d="M43.7498 14.943H56.2554C57.0538 14.943 57.7006 14.2963 57.7006 13.4979C57.7006 12.7003 57.0538 12.0527 56.2554 12.0527H43.7498C42.9523 12.0527 42.3047 12.7003 42.3047 13.4979C42.3047 14.2963 42.9523 14.943 43.7498 14.943Z" fill="white" fill-opacity="0.2"/>
<path d="M50.0005 79.377C47.0772 79.3761 44.707 81.7463 44.707 84.6697C44.707 87.593 47.0772 89.9632 50.0005 89.9632C52.9239 89.9632 55.2933 87.593 55.2933 84.6697C55.29 81.7479 52.9223 79.3802 50.0005 79.377ZM50.0005 87.0721C48.6731 87.0729 47.5973 85.9971 47.5973 84.6697C47.5973 83.3422 48.6731 82.2665 50.0005 82.2665C51.3271 82.2665 52.4029 83.3422 52.4029 84.6697C52.4013 85.9963 51.3271 87.0713 50.0005 87.0721Z" fill="white" fill-opacity="0.2"/>
<path d="M49.9998 39.3027C49.2015 39.3027 48.5547 39.9503 48.5547 40.7479V50.8639C48.5547 51.6623 49.2015 52.3091 49.9998 52.3091C50.7982 52.3091 51.445 51.6623 51.445 50.8639V40.7479C51.445 39.9503 50.7982 39.3027 49.9998 39.3027Z" fill="white" fill-opacity="0.2"/>
<path d="M49.9998 54.9941C49.2015 54.9941 48.5547 55.6417 48.5547 56.4393V59.1231C48.5547 59.9215 49.2015 60.5683 49.9998 60.5683C50.7982 60.5683 51.445 59.9215 51.445 59.1231V56.4393C51.445 55.6417 50.7982 54.9941 49.9998 54.9941Z" fill="white" fill-opacity="0.2"/>
<path d="M50.0022 32.3652C40.241 32.3652 32.3273 40.2781 32.3281 50.0401C32.3281 59.8013 40.241 67.7142 50.0022 67.7142C59.7642 67.7142 67.6771 59.8013 67.6771 50.0393C67.6658 40.2829 59.7594 32.3757 50.0022 32.3652ZM50.0022 64.8239C41.8369 64.8239 35.2176 58.2046 35.2184 50.0393C35.2184 41.874 41.8369 35.2555 50.0022 35.2555C58.1675 35.2555 64.7868 41.8748 64.7868 50.0393C64.7771 58.2014 58.1634 64.815 50.0022 64.8239Z" fill="white" fill-opacity="0.2"/>
<path d="M89.2502 51.4831C89.5002 52.4017 89.9857 53.238 90.6599 53.9089C92.4099 55.6581 95.1155 56.0146 97.259 54.7799C99.4026 53.546 100.451 51.0267 99.8171 48.6356C99.1832 46.2445 97.0235 44.5759 94.5494 44.5662C92.076 44.5566 89.9034 46.2074 89.2502 48.5928H76.4269V42.8122H82.7825C83.6002 42.7888 84.2559 42.1276 84.272 41.3098V35.38H88.3478C88.6107 36.2969 89.0938 37.1357 89.7542 37.8236C91.8913 39.9558 95.3518 39.9534 97.4864 37.8187C99.6203 35.6832 99.6203 32.222 97.4864 30.0865C95.3518 27.951 91.8913 27.9486 89.7542 30.0817C89.0954 30.7567 88.6123 31.5841 88.3478 32.4897H82.7825C82.4003 32.5002 82.0374 32.6615 81.7745 32.9397C81.5116 33.2171 81.3704 33.5881 81.3817 33.9704V39.9219H76.4269V12.5213C76.4269 8.54149 73.2205 5.23828 69.2407 5.23828H30.7619C26.7821 5.23828 23.5756 8.54149 23.5756 12.5213V38.2703H18.6208V33.9704C18.6321 33.5881 18.491 33.2171 18.2281 32.9397C17.9652 32.6615 17.6023 32.5002 17.22 32.4897H11.6548C11.3902 31.5841 10.9072 30.7567 10.2475 30.0817C8.67978 28.5051 6.31609 28.0293 4.26046 28.8776C2.20482 29.7252 0.863704 31.7292 0.863704 33.9526C0.863704 36.176 2.20482 38.18 4.26046 39.0284C6.31609 39.876 8.67978 39.4002 10.2475 37.8236C10.9088 37.1357 11.3919 36.2969 11.6548 35.38H15.7305V39.7002C15.7499 40.5098 16.4104 41.1574 17.22 41.1606H23.5756V48.5928H10.7523C10.029 45.9493 7.46124 44.2485 4.74432 44.6138C2.02741 44.9791 0 47.2969 0 50.038C0 52.7791 2.02741 55.0976 4.74432 55.463C7.46124 55.8283 10.029 54.1275 10.7523 51.4831H23.5756V57.2637H17.22C16.4023 57.2871 15.7467 57.9484 15.7305 58.767V64.696H11.6548C11.3919 63.7798 10.9088 62.9411 10.2475 62.2532C8.11366 60.1339 4.6669 60.1428 2.54273 62.2718C0.418546 64.4008 0.418546 67.8475 2.54273 69.9766C4.6669 72.1056 8.11366 72.1136 10.2475 69.9951C10.9072 69.3201 11.3902 68.4927 11.6548 67.5863H17.22C17.6023 67.5766 17.9652 67.4153 18.2281 67.1371C18.491 66.8596 18.6321 66.4887 18.6208 66.1064V60.154H23.5756V87.5555C23.5756 91.5345 26.7821 94.8377 30.7619 94.8377H69.2407C73.2205 94.8377 76.4269 91.5345 76.4269 87.5555V61.8057H81.3817V66.1064C81.3704 66.4887 81.5116 66.8596 81.7745 67.1371C82.0374 67.4153 82.4003 67.5766 82.7825 67.5863H88.3478C88.6123 68.4927 89.0954 69.3201 89.755 69.9951C91.3228 71.5725 93.6873 72.0483 95.7437 71.2008C97.8002 70.3524 99.1413 68.3483 99.1413 66.1242C99.1413 63.9 97.8002 61.8952 95.7437 61.0468C93.6873 60.1992 91.3228 60.675 89.755 62.2532C89.0938 62.9403 88.6107 63.779 88.3478 64.696H84.272V60.3758C84.2519 59.5661 83.5922 58.9194 82.7825 58.9153H76.4269V51.4831H89.2502ZM92.7042 48.2114C93.5752 47.3396 94.9413 47.2049 95.9663 47.8904C96.9913 48.5751 97.3897 49.888 96.9179 51.0267C96.4461 52.1662 95.2357 52.813 94.0268 52.5726C92.8179 52.3315 91.947 51.271 91.947 50.038C91.947 49.3533 92.2195 48.6961 92.7042 48.2114ZM91.7986 32.1429C92.4502 31.4841 93.4042 31.2244 94.3002 31.4623C95.1953 31.701 95.8953 32.4002 96.1332 33.2962C96.3711 34.1913 96.1115 35.1461 95.4526 35.7978C94.4421 36.7961 92.8139 36.7921 91.8091 35.7865C90.8042 34.7816 90.7994 33.1542 91.7986 32.1429ZM8.20398 35.7978C7.19511 36.805 5.56045 36.805 4.55239 35.7961C3.54433 34.7881 3.54433 33.1526 4.55239 32.1446C5.56045 31.1357 7.19511 31.1357 8.20398 32.1429C8.69268 32.6252 8.96849 33.2841 8.96849 33.9704C8.96849 34.6574 8.69268 35.3155 8.20398 35.7978ZM7.29834 51.8654C6.28947 52.8735 4.65481 52.8726 3.64675 51.8646C2.63869 50.8557 2.63869 49.2211 3.64675 48.2122C4.65481 47.2041 6.28947 47.2033 7.29834 48.2114C8.30801 49.2202 8.30801 50.8565 7.29834 51.8654ZM8.20398 67.933C7.55237 68.5927 6.59834 68.8524 5.70238 68.6145C4.80723 68.3758 4.10723 67.6766 3.86933 66.7806C3.63143 65.8855 3.8911 64.9306 4.54997 64.279C5.56045 63.2798 7.18866 63.2847 8.19349 64.2895C9.19833 65.2951 9.20316 66.9226 8.20398 67.933ZM91.7986 64.279C92.8074 63.2702 94.4437 63.2702 95.4526 64.279C96.4615 65.2887 96.4615 66.9242 95.4526 67.9338C94.4437 68.9427 92.8074 68.9427 91.7986 67.933C91.3099 67.4508 91.0341 66.7927 91.0341 66.1064C91.0341 65.4193 91.3099 64.7613 91.7986 64.279ZM26.466 22.5801H73.5366V74.6056H26.466V22.5801ZM30.7619 8.12858H69.2407C71.6261 8.12858 73.5366 10.1358 73.5366 12.5213V19.6898H26.466V12.5213C26.466 10.1358 28.3756 8.12858 30.7619 8.12858ZM69.2407 91.9474H30.7619C28.3756 91.9474 26.466 89.9409 26.466 87.5555V77.4959H73.5366V87.5555C73.5366 89.9409 71.6261 91.9474 69.2407 91.9474Z" fill="white" fill-opacity="0.2"/>
</g>
<defs>
<clipPath id="clip0_542_736">
<rect width="100" height="100" fill="white"/>
</clipPath>
</defs>
</svg>
