<svg width="21" height="21" viewBox="0 0 21 21" fill="none" xmlns="http://www.w3.org/2000/svg">
<g clip-path="url(#clip0_123_2353)">
<path d="M20.177 11.9787C20.177 11.9786 20.177 11.9786 20.1769 11.9785L16.4008 2.49708C16.3207 2.29563 16.0923 2.19728 15.8909 2.27742C15.8907 2.27747 15.8906 2.27752 15.8904 2.27762L0.571379 8.37752C0.508906 8.40452 0.454726 8.4476 0.414337 8.50237C0.286936 8.56858 0.206452 8.69961 0.205078 8.84315V19.0509C0.205078 19.2677 0.380867 19.4435 0.597683 19.4435H17.0871C17.3039 19.4435 17.4797 19.2677 17.4797 19.0509V13.4759L19.9578 12.4889C20.1592 12.4085 20.2573 12.1802 20.177 11.9787ZM16.6945 18.6583H0.990289V9.23576H16.6945V18.6583ZM6.7557 8.45251L13.3295 5.83305C13.9162 6.44973 14.7291 6.80023 15.5803 6.80357L16.2359 8.45251H6.7557ZM17.4797 12.6326V8.84315C17.4797 8.62634 17.3039 8.45055 17.0871 8.45055H17.0808L16.2489 6.3611C16.2397 6.34368 16.2289 6.32709 16.2167 6.31164C16.1746 6.12255 15.9995 5.99353 15.8064 6.00933C15.0144 6.08152 14.2397 5.7479 13.748 5.12283C13.6257 4.97182 13.4106 4.93428 13.2443 5.03488C13.2256 5.03709 13.2071 5.04053 13.1889 5.04509L5.16329 8.2409C5.06617 8.27898 4.98848 8.35451 4.94775 8.45055H2.51046L15.8166 3.15234L19.3026 11.9055L17.4797 12.6326Z" fill="url(#paint0_linear_123_2353)"/>
<path d="M2.05571 16.0078C2.81795 16.2331 3.41442 16.8289 3.64066 17.5908C3.69027 17.7571 3.84324 17.8711 4.01677 17.8711C4.03714 17.8699 4.05736 17.8668 4.07724 17.8621C4.09485 17.8671 4.11286 17.8708 4.13102 17.8731H13.5535C13.5697 17.871 13.5857 17.8677 13.6014 17.8633C13.7976 17.911 13.9953 17.7907 14.043 17.5945C14.0432 17.5938 14.0434 17.5931 14.0435 17.5924C14.2692 16.8297 14.8657 16.2331 15.6285 16.0074C15.8134 15.9509 15.9284 15.7666 15.8978 15.5756C15.903 15.5565 15.9068 15.5371 15.9092 15.5175V12.3766C15.9069 12.3569 15.9029 12.3375 15.8974 12.3185C15.9282 12.1275 15.8132 11.943 15.6281 11.8867C14.8653 11.6611 14.2689 11.0642 14.0439 10.3013C13.9871 10.1151 13.8009 9.99984 13.6089 10.032C13.5907 10.0269 13.5722 10.0233 13.5535 10.021H4.13102C4.11124 10.0234 4.09166 10.0273 4.07252 10.0328C3.88157 10.0023 3.69734 10.1172 3.64066 10.3021C3.41486 11.0647 2.81835 11.6611 2.05571 11.8867C1.87074 11.9432 1.75581 12.1275 1.78638 12.3185C1.78128 12.3376 1.7776 12.357 1.77539 12.3766V15.5175C1.77765 15.5359 1.78133 15.5542 1.78638 15.572C1.75419 15.7643 1.86937 15.9507 2.05571 16.0078ZM2.5606 12.536C3.34895 12.2194 3.97378 11.5946 4.29042 10.8062H13.3938C13.7105 11.5946 14.3355 12.2194 15.124 12.536V15.3581C14.3359 15.6751 13.7111 16.2998 13.3942 17.0879H4.29042C3.97344 16.2998 3.34871 15.6751 2.5606 15.3581V12.536Z" fill="url(#paint1_linear_123_2353)"/>
<path d="M8.84196 16.3026C10.143 16.3026 11.1976 15.2479 11.1976 13.9469C11.1976 12.6459 10.143 11.5913 8.84196 11.5913C7.54096 11.5913 6.48633 12.6459 6.48633 13.9469C6.4876 15.2474 7.5415 16.3013 8.84196 16.3026ZM8.84196 12.3765C9.70927 12.3765 10.4124 13.0796 10.4124 13.9469C10.4124 14.8143 9.70927 15.5174 8.84196 15.5174C7.97465 15.5174 7.27154 14.8143 7.27154 13.9469C7.27154 13.0796 7.97465 12.3765 8.84196 12.3765Z" fill="url(#paint2_linear_123_2353)"/>
<path d="M4.52445 14.5362C4.84968 14.5362 5.11336 14.2725 5.11336 13.9473C5.11336 13.6221 4.84968 13.3584 4.52445 13.3584C4.19923 13.3584 3.93555 13.6221 3.93555 13.9473C3.93555 14.2726 4.19923 14.5362 4.52445 14.5362ZM4.52445 13.751C4.63286 13.751 4.72076 13.8389 4.72076 13.9473C4.72076 14.0557 4.63286 14.1436 4.52445 14.1436C4.41605 14.1436 4.32815 14.0557 4.32815 13.9473C4.32815 13.8389 4.41605 13.751 4.52445 13.751Z" fill="url(#paint3_linear_123_2353)"/>
<path d="M13.1612 14.5357C13.4864 14.5357 13.7501 14.272 13.7501 13.9468C13.7501 13.6216 13.4864 13.3579 13.1612 13.3579C12.8359 13.3579 12.5723 13.6216 12.5723 13.9468C12.5723 14.2721 12.8359 14.5357 13.1612 14.5357ZM13.1612 13.7505C13.2696 13.7505 13.3575 13.8384 13.3575 13.9468C13.3575 14.0552 13.2696 14.1431 13.1612 14.1431C13.0528 14.1431 12.9649 14.0552 12.9649 13.9468C12.9649 13.8384 13.0528 13.7505 13.1612 13.7505Z" fill="url(#paint4_linear_123_2353)"/>
</g>
<defs>
<linearGradient id="paint0_linear_123_2353" x1="0.410246" y1="10.7152" x2="19.9999" y2="10.7757" gradientUnits="userSpaceOnUse">
<stop stop-color="#4D51AB"/>
<stop offset="1" stop-color="#55CEE3"/>
</linearGradient>
<linearGradient id="paint1_linear_123_2353" x1="1.92038" y1="13.8874" x2="15.764" y2="13.9535" gradientUnits="userSpaceOnUse">
<stop stop-color="#4D51AB"/>
<stop offset="1" stop-color="#55CEE3"/>
</linearGradient>
<linearGradient id="paint2_linear_123_2353" x1="6.53466" y1="13.911" x2="11.1493" y2="13.9232" gradientUnits="userSpaceOnUse">
<stop stop-color="#4D51AB"/>
<stop offset="1" stop-color="#55CEE3"/>
</linearGradient>
<linearGradient id="paint3_linear_123_2353" x1="3.94763" y1="13.9383" x2="5.10128" y2="13.9414" gradientUnits="userSpaceOnUse">
<stop stop-color="#4D51AB"/>
<stop offset="1" stop-color="#55CEE3"/>
</linearGradient>
<linearGradient id="paint4_linear_123_2353" x1="12.5843" y1="13.9378" x2="13.738" y2="13.9409" gradientUnits="userSpaceOnUse">
<stop stop-color="#4D51AB"/>
<stop offset="1" stop-color="#55CEE3"/>
</linearGradient>
<clipPath id="clip0_123_2353">
<rect width="20" height="20" fill="white" transform="translate(0.205078 0.84668)"/>
</clipPath>
</defs>
</svg>
