<svg width="100" height="100" viewBox="0 0 100 100" fill="none" xmlns="http://www.w3.org/2000/svg">
<g clip-path="url(#clip0_542_744)">
<path d="M79.2906 39.3492H74.128V27.3156C74.1433 26.9284 73.9956 26.5522 73.7213 26.2788C73.4479 26.0045 73.0717 25.8576 72.6845 25.8721H27.3148C26.9277 25.8576 26.5515 26.0045 26.2781 26.2788C26.0038 26.5522 25.8569 26.9284 25.8714 27.3156V39.3492H20.7088C19.8681 39.3492 19.1328 39.9215 19.1328 40.7621V59.2387C19.1498 60.1116 19.8376 60.8223 20.7088 60.869H25.8714V72.6853C25.8569 73.0724 26.0038 73.4486 26.2781 73.722C26.5515 73.9963 26.9277 74.144 27.3148 74.1287H72.6845C73.0717 74.144 73.4479 73.9963 73.7213 73.722C73.9956 73.4486 74.1433 73.0724 74.128 72.6853V60.869H79.2906C80.1618 60.8223 80.8496 60.1116 80.8666 59.2387V40.7621C80.8666 39.9215 80.1312 39.3492 79.2906 39.3492ZM28.9146 28.9153H71.0848V39.3492H28.9146V28.9153ZM71.0848 71.0855H28.9146V60.869H71.0848V71.0855ZM77.8234 57.8258H22.176V42.3924H77.8234V57.8258Z" fill="white" fill-opacity="0.2"/>
<path d="M49.9983 45.7012C47.6242 45.7012 45.6992 47.6261 45.6992 50.0002C45.6992 52.3743 47.6242 54.2993 49.9983 54.2993C52.3724 54.2993 54.2973 52.3743 54.2973 50.0002C54.2948 47.627 52.3715 45.7037 49.9983 45.7012ZM49.9983 51.2561C49.3045 51.2561 48.7424 50.6939 48.7424 50.0002C48.7424 49.3065 49.3045 48.7444 49.9983 48.7444C50.692 48.7444 51.2541 49.3065 51.2541 50.0002C51.2533 50.6939 50.692 51.2552 49.9983 51.2561Z" fill="white" fill-opacity="0.2"/>
<path d="M39.1311 45.7012C36.757 45.7012 34.832 47.6261 34.832 50.0002C34.832 52.3743 36.757 54.2993 39.1311 54.2993C41.5052 54.2993 43.4301 52.3743 43.4301 50.0002C43.4276 47.627 41.5043 45.7037 39.1311 45.7012ZM39.1311 51.2561C38.4374 51.2561 37.8752 50.6939 37.8752 50.0002C37.8752 49.3065 38.4374 48.7444 39.1311 48.7444C39.8248 48.7444 40.3869 49.3065 40.3869 50.0002C40.3861 50.6939 39.8248 51.2552 39.1311 51.2561Z" fill="white" fill-opacity="0.2"/>
<path d="M28.2639 45.7012C25.8898 45.7012 23.9648 47.6261 23.9648 50.0002C23.9648 52.3743 25.8898 54.2993 28.2639 54.2993C30.638 54.2993 32.5629 52.3743 32.5629 50.0002C32.5604 47.627 30.6372 45.7037 28.2639 45.7012ZM28.2639 51.2561C27.5702 51.2561 27.0081 50.6939 27.0081 50.0002C27.0081 49.3065 27.5702 48.7444 28.2639 48.7444C28.9576 48.7444 29.5197 49.3065 29.5197 50.0002C29.5189 50.6939 28.9576 51.2552 28.2639 51.2561Z" fill="white" fill-opacity="0.2"/>
<path d="M67.4375 50.0002C67.4375 52.3743 69.3624 54.2993 71.7365 54.2993C74.1107 54.2993 76.0356 52.3743 76.0356 50.0002C76.0356 47.6261 74.1107 45.7012 71.7365 45.7012C69.3633 45.7037 67.44 47.627 67.4375 50.0002ZM72.9924 50.0002C72.9924 50.6939 72.4303 51.2561 71.7365 51.2561C71.0428 51.2561 70.4807 50.6939 70.4807 50.0002C70.4807 49.3065 71.0428 48.7444 71.7365 48.7444C72.4303 48.7452 72.9915 49.3073 72.9924 50.0002Z" fill="white" fill-opacity="0.2"/>
<path d="M60.8694 45.7012C58.4952 45.7012 56.5703 47.6261 56.5703 50.0002C56.5703 52.3743 58.4952 54.2993 60.8694 54.2993C63.2435 54.2993 65.1684 52.3743 65.1684 50.0002C65.1659 47.627 63.2426 45.7037 60.8694 45.7012ZM60.8694 51.2561C60.1756 51.2561 59.6135 50.6939 59.6135 50.0002C59.6135 49.3065 60.1756 48.7444 60.8694 48.7444C61.5631 48.7444 62.1252 49.3065 62.1252 50.0002C62.1243 50.6939 61.5631 51.2552 60.8694 51.2561Z" fill="white" fill-opacity="0.2"/>
<path d="M98.4782 34.5665C99.3188 34.5665 99.9998 33.8855 99.9998 33.0449C99.9998 32.2042 99.3188 31.5232 98.4782 31.5232H84.7795V23.185C84.7922 21.069 83.9567 19.0362 82.4606 17.5392C80.9644 16.0431 78.9308 15.2084 76.8148 15.2203H68.4766V1.52161C68.4766 0.680987 67.7956 0 66.955 0C66.1143 0 65.4333 0.680987 65.4333 1.52161V15.2203H51.5215V1.52161C51.5215 0.680987 50.8405 0 49.9999 0C49.1593 0 48.4783 0.680987 48.4783 1.52161V15.2203H34.5665V1.52161C34.5665 0.680987 33.8855 0 33.0449 0C32.2042 0 31.5232 0.680987 31.5232 1.52161V15.2203H23.185C21.069 15.2084 19.0362 16.0431 17.5392 17.5392C16.0431 19.0362 15.2084 21.069 15.2203 23.185V31.5232H1.52161C0.680987 31.5232 0 32.2042 0 33.0449C0 33.8855 0.680987 34.5665 1.52161 34.5665H15.2203V48.4783H1.52161C0.680987 48.4783 0 49.1593 0 49.9999C0 50.8405 0.680987 51.5215 1.52161 51.5215H15.2203V65.4333H1.52161C0.680987 65.4333 0 66.1143 0 66.955C0 67.7956 0.680987 68.4766 1.52161 68.4766H15.2203V76.8148C15.2084 78.9308 16.0431 80.9644 17.5392 82.4606C19.0362 83.9567 21.069 84.7922 23.185 84.7795H31.5232V98.4782C31.5232 99.3188 32.2042 99.9998 33.0449 99.9998C33.8855 99.9998 34.5665 99.3188 34.5665 98.4782V84.7795H48.4783V98.4782C48.4783 99.3188 49.1593 99.9998 49.9999 99.9998C50.8405 99.9998 51.5215 99.3188 51.5215 98.4782V84.7795H65.4333V98.4782C65.4333 99.3188 66.1143 99.9998 66.955 99.9998C67.7956 99.9998 68.4766 99.3188 68.4766 98.4782V84.7795H76.8148C78.9308 84.7922 80.9644 83.9567 82.4606 82.4606C83.9567 80.9644 84.7922 78.9308 84.7795 76.8148V68.4766H98.4782C99.3188 68.4766 99.9998 67.7956 99.9998 66.955C99.9998 66.1143 99.3188 65.4333 98.4782 65.4333H84.7795V51.5215H98.4782C99.3188 51.5215 99.9998 50.8405 99.9998 49.9999C99.9998 49.1593 99.3188 48.4783 98.4782 48.4783H84.7795V34.5665H98.4782ZM81.7363 76.8148C81.7499 78.1242 81.2353 79.3834 80.3098 80.3098C79.3834 81.2353 78.1242 81.7499 76.8148 81.7363H23.185C21.8756 81.7499 20.6164 81.2353 19.69 80.3098C18.7645 79.3834 18.2499 78.1242 18.2635 76.8148V67.1205C18.2635 67.0815 18.2695 67.0424 18.2695 67.0025C18.2695 66.9626 18.2635 66.9235 18.2635 66.8845V50.1179C18.2635 50.0789 18.2695 50.0398 18.2695 49.9999C18.2695 49.96 18.2635 49.9209 18.2635 49.8819V33.1153C18.2635 33.0763 18.2695 33.0372 18.2695 32.9973C18.2695 32.9574 18.2635 32.9183 18.2635 32.8793V23.185C18.2508 21.8756 18.7645 20.6164 19.6909 19.69C20.6164 18.7645 21.8756 18.2499 23.185 18.2635H76.8148C78.1242 18.2499 79.3834 18.7645 80.3098 19.69C81.2353 20.6164 81.7499 21.8756 81.7363 23.185V76.8148Z" fill="white" fill-opacity="0.2"/>
</g>
<defs>
<clipPath id="clip0_542_744">
<rect width="100" height="100" fill="white"/>
</clipPath>
</defs>
</svg>
